<svg width="60" height="53" viewBox="0 0 60 53" fill="none" xmlns="http://www.w3.org/2000/svg">
<path d="M7.218 0.579999V13H3.834V0.579999H7.218ZM10.8 0.579999V3.154H0.234V0.579999H10.8ZM18.5991 3.802C20.3271 3.802 21.1911 4.636 21.1911 6.304V13H17.9151V7.33C17.9151 7.042 17.8551 6.844 17.7351 6.736C17.6271 6.628 17.4291 6.574 17.1411 6.574C16.8411 6.574 16.5171 6.616 16.1691 6.7C15.8331 6.784 15.4071 6.94 14.8911 7.168L14.5671 5.656C15.2151 5.044 15.8811 4.582 16.5651 4.27C17.2611 3.958 17.9391 3.802 18.5991 3.802ZM15.2331 0.399999L15.2511 3.262C15.2511 3.766 15.2151 4.252 15.1431 4.72C15.0711 5.188 14.9931 5.566 14.9091 5.854L15.2331 6.088V13H11.9571V0.399999H15.2331ZM27.4965 3.802C29.1045 3.802 30.2505 4.066 30.9345 4.594C31.6185 5.122 31.9605 5.902 31.9605 6.934C31.9725 7.762 31.7445 8.368 31.2765 8.752C30.8085 9.136 29.9805 9.328 28.7925 9.328H23.8965V7.69H27.8745C28.2825 7.69 28.5405 7.63 28.6485 7.51C28.7685 7.39 28.8285 7.174 28.8285 6.862C28.8165 6.514 28.7205 6.28 28.5405 6.16C28.3605 6.04 28.0485 5.98 27.6045 5.98C27.1845 5.968 26.8605 6.016 26.6325 6.124C26.4165 6.232 26.2665 6.448 26.1825 6.772C26.0985 7.096 26.0565 7.582 26.0565 8.23C26.0565 8.878 26.1045 9.376 26.2005 9.724C26.3085 10.072 26.4945 10.318 26.7585 10.462C27.0345 10.606 27.4185 10.678 27.9105 10.678C28.2945 10.678 28.7985 10.666 29.4225 10.642C30.0585 10.606 30.7245 10.552 31.4205 10.48L31.7265 12.46C31.3425 12.652 30.9165 12.802 30.4485 12.91C29.9925 13.018 29.5185 13.096 29.0265 13.144C28.5345 13.192 28.0425 13.216 27.5505 13.216C26.3505 13.216 25.3905 13.048 24.6705 12.712C23.9505 12.376 23.4285 11.866 23.1045 11.182C22.7925 10.486 22.6365 9.616 22.6365 8.572C22.6365 7.396 22.7985 6.46 23.1225 5.764C23.4465 5.068 23.9625 4.57 24.6705 4.27C25.3905 3.958 26.3325 3.802 27.4965 3.802ZM6.138 18.436C7.266 18.436 8.16 18.532 8.82 18.724C9.492 18.904 9.972 19.228 10.26 19.696C10.548 20.164 10.692 20.824 10.692 21.676C10.692 22.564 10.518 23.242 10.17 23.71C9.834 24.166 9.264 24.43 8.46 24.502V24.61C9.444 24.694 10.128 25.018 10.512 25.582C10.908 26.134 11.106 26.908 11.106 27.904C11.106 28.756 10.95 29.416 10.638 29.884C10.338 30.352 9.864 30.682 9.216 30.874C8.58 31.054 7.752 31.144 6.732 31.144C5.88 31.144 5.13 31.138 4.482 31.126C3.846 31.126 3.258 31.114 2.718 31.09C2.19 31.066 1.644 31.036 1.08 31L1.35 28.732C1.662 28.744 2.244 28.756 3.096 28.768C3.96 28.78 4.968 28.786 6.12 28.786C6.552 28.786 6.882 28.75 7.11 28.678C7.35 28.594 7.512 28.438 7.596 28.21C7.692 27.982 7.74 27.658 7.74 27.238C7.74 26.794 7.692 26.452 7.596 26.212C7.5 25.972 7.332 25.81 7.092 25.726C6.864 25.63 6.528 25.582 6.084 25.582H1.332V23.548H6.048C6.42 23.548 6.708 23.512 6.912 23.44C7.116 23.368 7.26 23.23 7.344 23.026C7.428 22.822 7.47 22.528 7.47 22.144C7.47 21.772 7.428 21.49 7.344 21.298C7.26 21.106 7.11 20.974 6.894 20.902C6.678 20.83 6.372 20.794 5.976 20.794C5.256 20.794 4.626 20.794 4.086 20.794C3.546 20.782 3.054 20.782 2.61 20.794C2.178 20.794 1.758 20.812 1.35 20.848L1.08 18.58C1.596 18.532 2.094 18.502 2.574 18.49C3.054 18.466 3.582 18.454 4.158 18.454C4.734 18.442 5.394 18.436 6.138 18.436ZM4.374 18.58V31H1.08V18.58H4.374ZM15.8646 22.054V27.724C15.8526 28 15.9126 28.198 16.0446 28.318C16.1766 28.438 16.3926 28.498 16.6926 28.498C16.9806 28.498 17.2746 28.456 17.5746 28.372C17.8866 28.288 18.2766 28.132 18.7446 27.904L18.9606 29.578C18.3366 30.142 17.7186 30.562 17.1066 30.838C16.4946 31.114 15.8586 31.252 15.1986 31.252C13.4586 31.252 12.5886 30.418 12.5886 28.75V22.054H15.8646ZM21.6966 22.054V31H19.1226L18.7266 29.2L18.4026 28.984V22.054H21.6966ZM26.097 22.054L26.493 23.854L26.817 24.088V31H23.541V22.054H26.097ZM30.453 21.802L30.165 24.808H29.301C28.941 24.808 28.545 24.844 28.113 24.916C27.681 24.988 27.135 25.108 26.475 25.276L26.277 23.494C26.877 22.93 27.489 22.51 28.113 22.234C28.749 21.946 29.361 21.802 29.949 21.802H30.453ZM35.6452 21.802C36.7372 21.802 37.6012 21.898 38.2372 22.09C38.8852 22.282 39.3472 22.582 39.6232 22.99C39.9112 23.398 40.0552 23.95 40.0552 24.646C40.0552 25.33 39.9172 25.882 39.6412 26.302C39.3652 26.71 38.8972 27.01 38.2372 27.202C37.5892 27.382 36.7192 27.472 35.6272 27.472C34.5472 27.472 33.6772 27.382 33.0172 27.202C32.3692 27.01 31.9012 26.71 31.6132 26.302C31.3252 25.882 31.1812 25.33 31.1812 24.646C31.1812 23.962 31.3252 23.416 31.6132 23.008C31.9132 22.588 32.3872 22.282 33.0352 22.09C33.6952 21.898 34.5652 21.802 35.6452 21.802ZM35.6272 23.674C35.0872 23.674 34.7152 23.746 34.5112 23.89C34.3192 24.022 34.2232 24.274 34.2232 24.646C34.2232 25.018 34.3192 25.276 34.5112 25.42C34.7152 25.552 35.0872 25.618 35.6272 25.618C36.1792 25.618 36.5512 25.552 36.7432 25.42C36.9352 25.276 37.0312 25.018 37.0312 24.646C37.0312 24.274 36.9352 24.022 36.7432 23.89C36.5512 23.746 36.1792 23.674 35.6272 23.674ZM41.0812 22.054L40.9192 23.314L38.4712 23.692L37.8052 22.054H41.0812ZM32.8552 26.95L34.4032 27.22C34.2592 27.28 34.1512 27.4 34.0792 27.58C34.0192 27.748 34.0372 27.916 34.1332 28.084C34.2292 28.24 34.4212 28.33 34.7092 28.354L37.9852 28.642C38.9812 28.726 39.6832 28.996 40.0912 29.452C40.5112 29.896 40.7212 30.544 40.7212 31.396C40.7212 32.2 40.5532 32.812 40.2172 33.232C39.8812 33.664 39.3472 33.958 38.6152 34.114C37.8952 34.27 36.9412 34.348 35.7532 34.348C34.7332 34.348 33.8992 34.3 33.2512 34.204C32.6152 34.108 32.1172 33.958 31.7572 33.754C31.3972 33.562 31.1452 33.298 31.0012 32.962C30.8692 32.638 30.8032 32.236 30.8032 31.756C30.8032 31.384 30.8692 31.06 31.0012 30.784C31.1452 30.508 31.3972 30.262 31.7572 30.046C32.1292 29.83 32.6392 29.632 33.2872 29.452L34.7272 29.056L35.8432 29.47L35.1952 29.866C34.8592 30.106 34.5952 30.292 34.4032 30.424C34.2112 30.556 34.0732 30.682 33.9892 30.802C33.9052 30.91 33.8632 31.072 33.8632 31.288C33.8632 31.504 33.9172 31.666 34.0252 31.774C34.1332 31.894 34.3192 31.972 34.5832 32.008C34.8592 32.056 35.2312 32.08 35.6992 32.08C36.2152 32.08 36.6112 32.056 36.8872 32.008C37.1752 31.972 37.3732 31.9 37.4812 31.792C37.6012 31.696 37.6612 31.552 37.6612 31.36C37.6612 31.168 37.6132 31.03 37.5172 30.946C37.4212 30.862 37.2652 30.802 37.0492 30.766C36.8452 30.718 36.5692 30.676 36.2212 30.64L33.6112 30.406C33.1192 30.358 32.7232 30.226 32.4232 30.01C32.1352 29.794 31.9372 29.536 31.8292 29.236C31.7212 28.924 31.6912 28.612 31.7392 28.3C31.7872 27.988 31.9072 27.712 32.0992 27.472C32.3032 27.22 32.5552 27.046 32.8552 26.95ZM46.5512 21.802C48.1592 21.802 49.3052 22.066 49.9892 22.594C50.6732 23.122 51.0152 23.902 51.0152 24.934C51.0272 25.762 50.7992 26.368 50.3312 26.752C49.8632 27.136 49.0352 27.328 47.8472 27.328H42.9512V25.69H46.9292C47.3372 25.69 47.5952 25.63 47.7032 25.51C47.8232 25.39 47.8832 25.174 47.8832 24.862C47.8712 24.514 47.7752 24.28 47.5952 24.16C47.4152 24.04 47.1032 23.98 46.6592 23.98C46.2392 23.968 45.9152 24.016 45.6872 24.124C45.4712 24.232 45.3212 24.448 45.2372 24.772C45.1532 25.096 45.1112 25.582 45.1112 26.23C45.1112 26.878 45.1592 27.376 45.2552 27.724C45.3632 28.072 45.5492 28.318 45.8132 28.462C46.0892 28.606 46.4732 28.678 46.9652 28.678C47.3492 28.678 47.8532 28.666 48.4772 28.642C49.1132 28.606 49.7792 28.552 50.4752 28.48L50.7812 30.46C50.3972 30.652 49.9712 30.802 49.5032 30.91C49.0472 31.018 48.5732 31.096 48.0812 31.144C47.5892 31.192 47.0972 31.216 46.6052 31.216C45.4052 31.216 44.4452 31.048 43.7252 30.712C43.0052 30.376 42.4832 29.866 42.1592 29.182C41.8472 28.486 41.6912 27.616 41.6912 26.572C41.6912 25.396 41.8532 24.46 42.1772 23.764C42.5012 23.068 43.0172 22.57 43.7252 22.27C44.4452 21.958 45.3872 21.802 46.5512 21.802ZM54.9955 22.054L55.3915 23.854L55.7155 24.088V31H52.4395V22.054H54.9955ZM59.3515 21.802L59.0635 24.808H58.1995C57.8395 24.808 57.4435 24.844 57.0115 24.916C56.5795 24.988 56.0335 25.108 55.3735 25.276L55.1755 23.494C55.7755 22.93 56.3875 22.51 57.0115 22.234C57.6475 21.946 58.2595 21.802 58.8475 21.802H59.3515ZM5.508 36.328C6.144 36.34 6.846 36.382 7.614 36.454C8.382 36.526 9.126 36.676 9.846 36.904L9.63 39.1C9.102 39.088 8.454 39.076 7.686 39.064C6.93 39.052 6.186 39.046 5.454 39.046C5.178 39.046 4.944 39.058 4.752 39.082C4.572 39.094 4.422 39.13 4.302 39.19C4.194 39.238 4.116 39.316 4.068 39.424C4.02 39.52 3.996 39.658 3.996 39.838C3.996 40.126 4.08 40.348 4.248 40.504C4.428 40.648 4.74 40.798 5.184 40.954L7.506 41.818C8.514 42.214 9.216 42.706 9.612 43.294C10.02 43.87 10.224 44.62 10.224 45.544C10.224 46.24 10.14 46.828 9.972 47.308C9.804 47.788 9.528 48.166 9.144 48.442C8.772 48.718 8.274 48.922 7.65 49.054C7.038 49.186 6.276 49.252 5.364 49.252C4.944 49.252 4.326 49.222 3.51 49.162C2.706 49.102 1.794 48.946 0.774 48.694L0.972 46.318C1.692 46.33 2.328 46.348 2.88 46.372C3.444 46.384 3.93 46.396 4.338 46.408C4.758 46.408 5.088 46.408 5.328 46.408C5.736 46.408 6.048 46.39 6.264 46.354C6.48 46.306 6.63 46.228 6.714 46.12C6.798 46 6.84 45.832 6.84 45.616C6.84 45.412 6.81 45.25 6.75 45.13C6.69 45.01 6.582 44.908 6.426 44.824C6.282 44.74 6.084 44.656 5.832 44.572L3.348 43.582C2.364 43.174 1.668 42.688 1.26 42.124C0.852 41.56 0.648 40.822 0.648 39.91C0.648 39.19 0.738 38.602 0.918 38.146C1.098 37.69 1.374 37.33 1.746 37.066C2.13 36.802 2.634 36.616 3.258 36.508C3.882 36.388 4.632 36.328 5.508 36.328ZM18.3354 39.802C20.0634 39.802 20.9274 40.636 20.9274 42.304V49H17.6514V43.33C17.6514 43.042 17.5914 42.844 17.4714 42.736C17.3634 42.628 17.1654 42.574 16.8774 42.574C16.5774 42.574 16.2534 42.616 15.9054 42.7C15.5694 42.784 15.1434 42.94 14.6274 43.168L14.3034 41.656C14.9514 41.044 15.6174 40.582 16.3014 40.27C16.9974 39.958 17.6754 39.802 18.3354 39.802ZM14.9694 36.4L14.9874 39.262C14.9874 39.766 14.9514 40.252 14.8794 40.72C14.8074 41.188 14.7294 41.566 14.6454 41.854L14.9694 42.088V49H11.6934V36.4H14.9694ZM27.2149 39.802C28.3909 39.802 29.3329 39.958 30.0409 40.27C30.7489 40.57 31.2589 41.068 31.5709 41.764C31.8829 42.448 32.0389 43.372 32.0389 44.536C32.0389 45.688 31.8829 46.606 31.5709 47.29C31.2589 47.962 30.7489 48.454 30.0409 48.766C29.3329 49.066 28.3909 49.216 27.2149 49.216C26.0389 49.216 25.0969 49.066 24.3889 48.766C23.6809 48.454 23.1709 47.962 22.8589 47.29C22.5469 46.606 22.3909 45.688 22.3909 44.536C22.3909 43.372 22.5469 42.448 22.8589 41.764C23.1709 41.068 23.6809 40.57 24.3889 40.27C25.0969 39.958 26.0389 39.802 27.2149 39.802ZM27.2149 42.088C26.8429 42.088 26.5549 42.154 26.3509 42.286C26.1589 42.418 26.0209 42.658 25.9369 43.006C25.8529 43.354 25.8109 43.864 25.8109 44.536C25.8109 45.196 25.8529 45.7 25.9369 46.048C26.0209 46.396 26.1589 46.636 26.3509 46.768C26.5549 46.888 26.8429 46.948 27.2149 46.948C27.5869 46.948 27.8749 46.888 28.0789 46.768C28.2829 46.636 28.4209 46.396 28.4929 46.048C28.5769 45.7 28.6189 45.196 28.6189 44.536C28.6189 43.864 28.5769 43.354 28.4929 43.006C28.4209 42.658 28.2829 42.418 28.0789 42.286C27.8749 42.154 27.5869 42.088 27.2149 42.088ZM39.8074 39.838C40.9594 39.838 41.7754 40.252 42.2554 41.08C42.7474 41.908 42.9934 43.09 42.9934 44.626C42.9934 45.838 42.8614 46.78 42.5974 47.452C42.3454 48.112 41.9674 48.58 41.4634 48.856C40.9714 49.12 40.3534 49.252 39.6094 49.252C38.9494 49.252 38.3254 49.156 37.7374 48.964C37.1494 48.76 36.6574 48.43 36.2614 47.974L36.4774 46.624C36.7894 46.72 37.0774 46.816 37.3414 46.912C37.6174 46.996 37.9534 47.038 38.3494 47.038C38.6614 47.038 38.9074 46.984 39.0874 46.876C39.2794 46.756 39.4174 46.528 39.5014 46.192C39.5854 45.844 39.6274 45.328 39.6274 44.644C39.6274 43.96 39.5854 43.444 39.5014 43.096C39.4174 42.748 39.2854 42.52 39.1054 42.412C38.9374 42.304 38.7154 42.25 38.4394 42.25C38.0794 42.25 37.7794 42.304 37.5394 42.412C37.2994 42.508 37.0294 42.646 36.7294 42.826L36.2974 41.494C36.4894 41.182 36.7654 40.9 37.1254 40.648C37.4854 40.396 37.8934 40.198 38.3494 40.054C38.8174 39.91 39.3034 39.838 39.8074 39.838ZM36.1534 40.054L36.4594 41.566L36.8014 41.836V47.722L36.6934 47.938C36.7294 48.31 36.7534 48.706 36.7654 49.126C36.7894 49.558 36.8014 49.972 36.8014 50.368V52.33H33.5254V40.054H36.1534Z" fill="#F8D24A"/>
</svg>
